<?xml version="1.0" encoding="UTF-8"?>
<!DOCTYPE svg
  PUBLIC '-//W3C//DTD SVG 1.1//EN'
  'http://www.w3.org/Graphics/SVG/1.1/DTD/svg11.dtd'>
<svg height="23.000mm" version="1.1" width="38.000mm" xmlns="http://www.w3.org/2000/svg">
    <!--Autogenerated with python-barcode 0.10.0-->
    <g id="barcode_group">
        <rect height="100%" style="fill:white" width="100%"/>
        <rect height="15.000mm" style="fill:black;" width="0.400mm" x="2.540mm" y="1.000mm"/>
        <rect height="15.000mm" style="fill:white;" width="0.200mm" x="2.940mm" y="1.000mm"/>
        <rect height="15.000mm" style="fill:black;" width="0.200mm" x="3.140mm" y="1.000mm"/>
        <rect height="15.000mm" style="fill:white;" width="0.400mm" x="3.340mm" y="1.000mm"/>
        <rect height="15.000mm" style="fill:black;" width="0.200mm" x="3.740mm" y="1.000mm"/>
        <rect height="15.000mm" style="fill:white;" width="0.800mm" x="3.940mm" y="1.000mm"/>
        <rect height="15.000mm" style="fill:black;" width="0.200mm" x="4.740mm" y="1.000mm"/>
        <rect height="15.000mm" style="fill:white;" width="0.200mm" x="4.940mm" y="1.000mm"/>
        <rect height="15.000mm" style="fill:black;" width="0.400mm" x="5.140mm" y="1.000mm"/>
        <rect height="15.000mm" style="fill:white;" width="0.400mm" x="5.540mm" y="1.000mm"/>
        <rect height="15.000mm" style="fill:black;" width="0.200mm" x="5.940mm" y="1.000mm"/>
        <rect height="15.000mm" style="fill:white;" width="0.800mm" x="6.140mm" y="1.000mm"/>
        <rect height="15.000mm" style="fill:black;" width="0.200mm" x="6.940mm" y="1.000mm"/>
        <rect height="15.000mm" style="fill:white;" width="0.400mm" x="7.140mm" y="1.000mm"/>
        <rect height="15.000mm" style="fill:black;" width="0.600mm" x="7.540mm" y="1.000mm"/>
        <rect height="15.000mm" style="fill:white;" width="0.400mm" x="8.140mm" y="1.000mm"/>
        <rect height="15.000mm" style="fill:black;" width="0.400mm" x="8.540mm" y="1.000mm"/>
        <rect height="15.000mm" style="fill:white;" width="0.200mm" x="8.940mm" y="1.000mm"/>
        <rect height="15.000mm" style="fill:black;" width="0.200mm" x="9.140mm" y="1.000mm"/>
        <rect height="15.000mm" style="fill:white;" width="0.400mm" x="9.340mm" y="1.000mm"/>
        <rect height="15.000mm" style="fill:black;" width="0.200mm" x="9.740mm" y="1.000mm"/>
        <rect height="15.000mm" style="fill:white;" width="0.800mm" x="9.940mm" y="1.000mm"/>
        <rect height="15.000mm" style="fill:black;" width="0.400mm" x="10.740mm" y="1.000mm"/>
        <rect height="15.000mm" style="fill:white;" width="0.200mm" x="11.140mm" y="1.000mm"/>
        <rect height="15.000mm" style="fill:black;" width="0.400mm" x="11.340mm" y="1.000mm"/>
        <rect height="15.000mm" style="fill:white;" width="0.400mm" x="11.740mm" y="1.000mm"/>
        <rect height="15.000mm" style="fill:black;" width="0.600mm" x="12.140mm" y="1.000mm"/>
        <rect height="15.000mm" style="fill:white;" width="0.200mm" x="12.740mm" y="1.000mm"/>
        <rect height="15.000mm" style="fill:black;" width="0.200mm" x="12.940mm" y="1.000mm"/>
        <rect height="15.000mm" style="fill:white;" width="0.400mm" x="13.140mm" y="1.000mm"/>
        <rect height="15.000mm" style="fill:black;" width="0.200mm" x="13.540mm" y="1.000mm"/>
        <rect height="15.000mm" style="fill:white;" width="0.200mm" x="13.740mm" y="1.000mm"/>
        <rect height="15.000mm" style="fill:black;" width="0.400mm" x="13.940mm" y="1.000mm"/>
        <rect height="15.000mm" style="fill:white;" width="0.400mm" x="14.340mm" y="1.000mm"/>
        <rect height="15.000mm" style="fill:black;" width="0.200mm" x="14.740mm" y="1.000mm"/>
        <rect height="15.000mm" style="fill:white;" width="0.800mm" x="14.940mm" y="1.000mm"/>
        <rect height="15.000mm" style="fill:black;" width="0.600mm" x="15.740mm" y="1.000mm"/>
        <rect height="15.000mm" style="fill:white;" width="0.400mm" x="16.340mm" y="1.000mm"/>
        <rect height="15.000mm" style="fill:black;" width="0.200mm" x="16.740mm" y="1.000mm"/>
        <rect height="15.000mm" style="fill:white;" width="0.200mm" x="16.940mm" y="1.000mm"/>
        <rect height="15.000mm" style="fill:black;" width="0.400mm" x="17.140mm" y="1.000mm"/>
        <rect height="15.000mm" style="fill:white;" width="0.400mm" x="17.540mm" y="1.000mm"/>
        <rect height="15.000mm" style="fill:black;" width="0.600mm" x="17.940mm" y="1.000mm"/>
        <rect height="15.000mm" style="fill:white;" width="0.200mm" x="18.540mm" y="1.000mm"/>
        <rect height="15.000mm" style="fill:black;" width="0.400mm" x="18.740mm" y="1.000mm"/>
        <rect height="15.000mm" style="fill:white;" width="0.200mm" x="19.140mm" y="1.000mm"/>
        <rect height="15.000mm" style="fill:black;" width="0.600mm" x="19.340mm" y="1.000mm"/>
        <rect height="15.000mm" style="fill:white;" width="0.200mm" x="19.940mm" y="1.000mm"/>
        <rect height="15.000mm" style="fill:black;" width="0.400mm" x="20.140mm" y="1.000mm"/>
        <rect height="15.000mm" style="fill:white;" width="0.400mm" x="20.540mm" y="1.000mm"/>
        <rect height="15.000mm" style="fill:black;" width="0.600mm" x="20.940mm" y="1.000mm"/>
        <rect height="15.000mm" style="fill:white;" width="0.200mm" x="21.540mm" y="1.000mm"/>
        <rect height="15.000mm" style="fill:black;" width="0.200mm" x="21.740mm" y="1.000mm"/>
        <rect height="15.000mm" style="fill:white;" width="0.400mm" x="21.940mm" y="1.000mm"/>
        <rect height="15.000mm" style="fill:black;" width="0.200mm" x="22.340mm" y="1.000mm"/>
        <rect height="15.000mm" style="fill:white;" width="0.400mm" x="22.540mm" y="1.000mm"/>
        <rect height="15.000mm" style="fill:black;" width="0.200mm" x="22.940mm" y="1.000mm"/>
        <rect height="15.000mm" style="fill:white;" width="0.200mm" x="23.140mm" y="1.000mm"/>
        <rect height="15.000mm" style="fill:black;" width="0.400mm" x="23.340mm" y="1.000mm"/>
        <rect height="15.000mm" style="fill:white;" width="0.800mm" x="23.740mm" y="1.000mm"/>
        <rect height="15.000mm" style="fill:black;" width="0.200mm" x="24.540mm" y="1.000mm"/>
        <rect height="15.000mm" style="fill:white;" width="0.400mm" x="24.740mm" y="1.000mm"/>
        <rect height="15.000mm" style="fill:black;" width="0.600mm" x="25.140mm" y="1.000mm"/>
        <rect height="15.000mm" style="fill:white;" width="0.400mm" x="25.740mm" y="1.000mm"/>
        <rect height="15.000mm" style="fill:black;" width="0.400mm" x="26.140mm" y="1.000mm"/>
        <rect height="15.000mm" style="fill:white;" width="0.200mm" x="26.540mm" y="1.000mm"/>
        <rect height="15.000mm" style="fill:black;" width="0.600mm" x="26.740mm" y="1.000mm"/>
        <rect height="15.000mm" style="fill:white;" width="0.200mm" x="27.340mm" y="1.000mm"/>
        <rect height="15.000mm" style="fill:black;" width="0.400mm" x="27.540mm" y="1.000mm"/>
        <rect height="15.000mm" style="fill:white;" width="0.200mm" x="27.940mm" y="1.000mm"/>
        <rect height="15.000mm" style="fill:black;" width="0.600mm" x="28.140mm" y="1.000mm"/>
        <rect height="15.000mm" style="fill:white;" width="0.200mm" x="28.740mm" y="1.000mm"/>
        <rect height="15.000mm" style="fill:black;" width="0.200mm" x="28.940mm" y="1.000mm"/>
        <rect height="15.000mm" style="fill:white;" width="0.800mm" x="29.140mm" y="1.000mm"/>
        <rect height="15.000mm" style="fill:black;" width="0.200mm" x="29.940mm" y="1.000mm"/>
        <rect height="15.000mm" style="fill:white;" width="0.400mm" x="30.140mm" y="1.000mm"/>
        <rect height="15.000mm" style="fill:black;" width="0.400mm" x="30.540mm" y="1.000mm"/>
        <rect height="15.000mm" style="fill:white;" width="0.200mm" x="30.940mm" y="1.000mm"/>
        <rect height="15.000mm" style="fill:black;" width="0.600mm" x="31.140mm" y="1.000mm"/>
        <rect height="15.000mm" style="fill:white;" width="0.600mm" x="31.740mm" y="1.000mm"/>
        <rect height="15.000mm" style="fill:black;" width="0.400mm" x="32.340mm" y="1.000mm"/>
        <rect height="15.000mm" style="fill:white;" width="0.200mm" x="32.740mm" y="1.000mm"/>
        <rect height="15.000mm" style="fill:black;" width="0.200mm" x="32.940mm" y="1.000mm"/>
        <rect height="15.000mm" style="fill:white;" width="0.200mm" x="33.140mm" y="1.000mm"/>
        <rect height="15.000mm" style="fill:black;" width="0.400mm" x="33.340mm" y="1.000mm"/>
        <rect height="15.000mm" style="fill:white;" width="0.600mm" x="33.740mm" y="1.000mm"/>
        <rect height="15.000mm" style="fill:black;" width="0.600mm" x="34.340mm" y="1.000mm"/>
        <rect height="15.000mm" style="fill:white;" width="0.200mm" x="34.940mm" y="1.000mm"/>
        <rect height="15.000mm" style="fill:black;" width="0.200mm" x="35.140mm" y="1.000mm"/>
        <rect height="15.000mm" style="fill:white;" width="0.200mm" x="35.340mm" y="1.000mm"/>
        <rect height="15.000mm" style="fill:black;" width="0.400mm" x="35.540mm" y="1.000mm"/>
        <text style="fill:black;font-size:10pt;text-anchor:middle;" x="19.240mm" y="21.000mm">e1b6e976a17d</text>
    </g>
</svg>
