<?xml version="1.0" encoding="UTF-8"?>
<!DOCTYPE svg
  PUBLIC '-//W3C//DTD SVG 1.1//EN'
  'http://www.w3.org/Graphics/SVG/1.1/DTD/svg11.dtd'>
<svg height="23.000mm" version="1.1" width="36.000mm" xmlns="http://www.w3.org/2000/svg">
    <!--Autogenerated with python-barcode 0.10.0-->
    <g id="barcode_group">
        <rect height="100%" style="fill:white" width="100%"/>
        <rect height="15.000mm" style="fill:black;" width="0.400mm" x="2.540mm" y="1.000mm"/>
        <rect height="15.000mm" style="fill:white;" width="0.200mm" x="2.940mm" y="1.000mm"/>
        <rect height="15.000mm" style="fill:black;" width="0.200mm" x="3.140mm" y="1.000mm"/>
        <rect height="15.000mm" style="fill:white;" width="0.400mm" x="3.340mm" y="1.000mm"/>
        <rect height="15.000mm" style="fill:black;" width="0.200mm" x="3.740mm" y="1.000mm"/>
        <rect height="15.000mm" style="fill:white;" width="0.800mm" x="3.940mm" y="1.000mm"/>
        <rect height="15.000mm" style="fill:black;" width="0.200mm" x="4.740mm" y="1.000mm"/>
        <rect height="15.000mm" style="fill:white;" width="0.400mm" x="4.940mm" y="1.000mm"/>
        <rect height="15.000mm" style="fill:black;" width="0.200mm" x="5.340mm" y="1.000mm"/>
        <rect height="15.000mm" style="fill:white;" width="0.800mm" x="5.540mm" y="1.000mm"/>
        <rect height="15.000mm" style="fill:black;" width="0.400mm" x="6.340mm" y="1.000mm"/>
        <rect height="15.000mm" style="fill:white;" width="0.200mm" x="6.740mm" y="1.000mm"/>
        <rect height="15.000mm" style="fill:black;" width="0.200mm" x="6.940mm" y="1.000mm"/>
        <rect height="15.000mm" style="fill:white;" width="0.800mm" x="7.140mm" y="1.000mm"/>
        <rect height="15.000mm" style="fill:black;" width="0.200mm" x="7.940mm" y="1.000mm"/>
        <rect height="15.000mm" style="fill:white;" width="0.400mm" x="8.140mm" y="1.000mm"/>
        <rect height="15.000mm" style="fill:black;" width="0.400mm" x="8.540mm" y="1.000mm"/>
        <rect height="15.000mm" style="fill:white;" width="0.200mm" x="8.940mm" y="1.000mm"/>
        <rect height="15.000mm" style="fill:black;" width="0.400mm" x="9.140mm" y="1.000mm"/>
        <rect height="15.000mm" style="fill:white;" width="0.200mm" x="9.540mm" y="1.000mm"/>
        <rect height="15.000mm" style="fill:black;" width="0.600mm" x="9.740mm" y="1.000mm"/>
        <rect height="15.000mm" style="fill:white;" width="0.400mm" x="10.340mm" y="1.000mm"/>
        <rect height="15.000mm" style="fill:black;" width="0.200mm" x="10.740mm" y="1.000mm"/>
        <rect height="15.000mm" style="fill:white;" width="0.400mm" x="10.940mm" y="1.000mm"/>
        <rect height="15.000mm" style="fill:black;" width="0.200mm" x="11.340mm" y="1.000mm"/>
        <rect height="15.000mm" style="fill:white;" width="0.400mm" x="11.540mm" y="1.000mm"/>
        <rect height="15.000mm" style="fill:black;" width="0.200mm" x="11.940mm" y="1.000mm"/>
        <rect height="15.000mm" style="fill:white;" width="0.800mm" x="12.140mm" y="1.000mm"/>
        <rect height="15.000mm" style="fill:black;" width="0.400mm" x="12.940mm" y="1.000mm"/>
        <rect height="15.000mm" style="fill:white;" width="0.200mm" x="13.340mm" y="1.000mm"/>
        <rect height="15.000mm" style="fill:black;" width="0.200mm" x="13.540mm" y="1.000mm"/>
        <rect height="15.000mm" style="fill:white;" width="0.200mm" x="13.740mm" y="1.000mm"/>
        <rect height="15.000mm" style="fill:black;" width="0.600mm" x="13.940mm" y="1.000mm"/>
        <rect height="15.000mm" style="fill:white;" width="0.200mm" x="14.540mm" y="1.000mm"/>
        <rect height="15.000mm" style="fill:black;" width="0.800mm" x="14.740mm" y="1.000mm"/>
        <rect height="15.000mm" style="fill:white;" width="0.200mm" x="15.540mm" y="1.000mm"/>
        <rect height="15.000mm" style="fill:black;" width="0.200mm" x="15.740mm" y="1.000mm"/>
        <rect height="15.000mm" style="fill:white;" width="0.200mm" x="15.940mm" y="1.000mm"/>
        <rect height="15.000mm" style="fill:black;" width="0.800mm" x="16.140mm" y="1.000mm"/>
        <rect height="15.000mm" style="fill:white;" width="0.400mm" x="16.940mm" y="1.000mm"/>
        <rect height="15.000mm" style="fill:black;" width="0.200mm" x="17.340mm" y="1.000mm"/>
        <rect height="15.000mm" style="fill:white;" width="0.400mm" x="17.540mm" y="1.000mm"/>
        <rect height="15.000mm" style="fill:black;" width="0.600mm" x="17.940mm" y="1.000mm"/>
        <rect height="15.000mm" style="fill:white;" width="0.200mm" x="18.540mm" y="1.000mm"/>
        <rect height="15.000mm" style="fill:black;" width="0.400mm" x="18.740mm" y="1.000mm"/>
        <rect height="15.000mm" style="fill:white;" width="0.400mm" x="19.140mm" y="1.000mm"/>
        <rect height="15.000mm" style="fill:black;" width="0.200mm" x="19.540mm" y="1.000mm"/>
        <rect height="15.000mm" style="fill:white;" width="0.400mm" x="19.740mm" y="1.000mm"/>
        <rect height="15.000mm" style="fill:black;" width="0.400mm" x="20.140mm" y="1.000mm"/>
        <rect height="15.000mm" style="fill:white;" width="0.400mm" x="20.540mm" y="1.000mm"/>
        <rect height="15.000mm" style="fill:black;" width="0.600mm" x="20.940mm" y="1.000mm"/>
        <rect height="15.000mm" style="fill:white;" width="0.200mm" x="21.540mm" y="1.000mm"/>
        <rect height="15.000mm" style="fill:black;" width="0.200mm" x="21.740mm" y="1.000mm"/>
        <rect height="15.000mm" style="fill:white;" width="0.400mm" x="21.940mm" y="1.000mm"/>
        <rect height="15.000mm" style="fill:black;" width="0.200mm" x="22.340mm" y="1.000mm"/>
        <rect height="15.000mm" style="fill:white;" width="0.200mm" x="22.540mm" y="1.000mm"/>
        <rect height="15.000mm" style="fill:black;" width="0.800mm" x="22.740mm" y="1.000mm"/>
        <rect height="15.000mm" style="fill:white;" width="0.200mm" x="23.540mm" y="1.000mm"/>
        <rect height="15.000mm" style="fill:black;" width="0.600mm" x="23.740mm" y="1.000mm"/>
        <rect height="15.000mm" style="fill:white;" width="0.200mm" x="24.340mm" y="1.000mm"/>
        <rect height="15.000mm" style="fill:black;" width="0.400mm" x="24.540mm" y="1.000mm"/>
        <rect height="15.000mm" style="fill:white;" width="0.400mm" x="24.940mm" y="1.000mm"/>
        <rect height="15.000mm" style="fill:black;" width="0.200mm" x="25.340mm" y="1.000mm"/>
        <rect height="15.000mm" style="fill:white;" width="0.200mm" x="25.540mm" y="1.000mm"/>
        <rect height="15.000mm" style="fill:black;" width="0.600mm" x="25.740mm" y="1.000mm"/>
        <rect height="15.000mm" style="fill:white;" width="0.400mm" x="26.340mm" y="1.000mm"/>
        <rect height="15.000mm" style="fill:black;" width="0.200mm" x="26.740mm" y="1.000mm"/>
        <rect height="15.000mm" style="fill:white;" width="0.400mm" x="26.940mm" y="1.000mm"/>
        <rect height="15.000mm" style="fill:black;" width="0.200mm" x="27.340mm" y="1.000mm"/>
        <rect height="15.000mm" style="fill:white;" width="0.800mm" x="27.540mm" y="1.000mm"/>
        <rect height="15.000mm" style="fill:black;" width="0.400mm" x="28.340mm" y="1.000mm"/>
        <rect height="15.000mm" style="fill:white;" width="0.200mm" x="28.740mm" y="1.000mm"/>
        <rect height="15.000mm" style="fill:black;" width="0.200mm" x="28.940mm" y="1.000mm"/>
        <rect height="15.000mm" style="fill:white;" width="0.200mm" x="29.140mm" y="1.000mm"/>
        <rect height="15.000mm" style="fill:black;" width="0.600mm" x="29.340mm" y="1.000mm"/>
        <rect height="15.000mm" style="fill:white;" width="0.200mm" x="29.940mm" y="1.000mm"/>
        <rect height="15.000mm" style="fill:black;" width="0.800mm" x="30.140mm" y="1.000mm"/>
        <rect height="15.000mm" style="fill:white;" width="0.200mm" x="30.940mm" y="1.000mm"/>
        <rect height="15.000mm" style="fill:black;" width="0.400mm" x="31.140mm" y="1.000mm"/>
        <rect height="15.000mm" style="fill:white;" width="0.600mm" x="31.540mm" y="1.000mm"/>
        <rect height="15.000mm" style="fill:black;" width="0.600mm" x="32.140mm" y="1.000mm"/>
        <rect height="15.000mm" style="fill:white;" width="0.200mm" x="32.740mm" y="1.000mm"/>
        <rect height="15.000mm" style="fill:black;" width="0.200mm" x="32.940mm" y="1.000mm"/>
        <rect height="15.000mm" style="fill:white;" width="0.200mm" x="33.140mm" y="1.000mm"/>
        <rect height="15.000mm" style="fill:black;" width="0.400mm" x="33.340mm" y="1.000mm"/>
        <text style="fill:black;font-size:10pt;text-anchor:middle;" x="18.140mm" y="21.000mm">bd5b8327223b</text>
    </g>
</svg>
